<svg width="20" height="21" viewBox="0 0 20 21" fill="none" xmlns="http://www.w3.org/2000/svg">
<path d="M19.5861 10.3361L10.499 0.71903C10.4336 0.649598 10.3559 0.594513 10.2703 0.556929C10.1847 0.519346 10.093 0.5 10.0004 0.5C9.90779 0.5 9.81608 0.519346 9.73053 0.556929C9.64497 0.594513 9.56726 0.649598 9.50183 0.71903L0.414753 10.3361C0.150017 10.6165 0 10.9974 0 11.3946C0 12.2194 0.633161 12.89 1.41193 12.89H2.36939V19.7523C2.36939 20.1659 2.68487 20.5 3.07535 20.5H8.58849V15.2662H11.0594V20.5H16.9255C17.316 20.5 17.6314 20.1659 17.6314 19.7523V12.89H18.5889C18.9639 12.89 19.3235 12.7334 19.5883 12.4507C20.1376 11.8666 20.1376 10.9203 19.5861 10.3361Z" fill="white"/>
</svg>
