<svg width="28" height="29" viewBox="0 0 28 29" fill="none" xmlns="http://www.w3.org/2000/svg">
<path d="M27.7277 11.7581H26.6V11.7H14V17.3H21.9121C20.7578 20.5599 17.6561 22.9 14 22.9C9.3611 22.9 5.6 19.1389 5.6 14.5C5.6 9.8611 9.3611 6.1 14 6.1C16.1413 6.1 18.0894 6.9078 19.5727 8.2273L23.5326 4.2674C21.0322 1.9371 17.6876 0.5 14 0.5C6.2685 0.5 0 6.7685 0 14.5C0 22.2315 6.2685 28.5 14 28.5C21.7315 28.5 28 22.2315 28 14.5C28 13.5613 27.9034 12.645 27.7277 11.7581Z" fill="#FFC107"/>
<path d="M1.61426 7.9837L6.21396 11.357C7.45856 8.2756 10.4728 6.1 14.0001 6.1C16.1414 6.1 18.0895 6.9078 19.5728 8.2273L23.5327 4.2674C21.0323 1.9371 17.6877 0.5 14.0001 0.5C8.62266 0.5 3.95926 3.5359 1.61426 7.9837Z" fill="#FF3D00"/>
<path d="M14.0001 28.5C17.6163 28.5 20.9021 27.1161 23.3864 24.8656L19.0534 21.199C17.6006 22.3039 15.8253 22.9015 14.0001 22.9C10.3587 22.9 7.26682 20.5781 6.10202 17.3378L1.53662 20.8553C3.85362 25.3892 8.55902 28.5 14.0001 28.5Z" fill="#4CAF50"/>
<path d="M27.7277 11.7581H26.6V11.7H14V17.3H21.9121C21.3599 18.8515 20.3653 20.2072 19.0512 21.1997L19.0533 21.1983L23.3863 24.8649C23.0797 25.1435 28 21.5 28 14.5C28 13.5613 27.9034 12.645 27.7277 11.7581Z" fill="#1976D2"/>
</svg>
