<svg width="568" height="432" viewBox="0 0 568 432" fill="none" xmlns="http://www.w3.org/2000/svg">
<path fill-rule="evenodd" clip-rule="evenodd" d="M202.532 2.62232C298.823 18.5272 299.032 18.1224 516.532 125.122C579.532 216.622 574.04 335.151 552.032 414.122C435.532 414.122 537.532 414.122 435.532 414.122C363.406 414.122 383.316 452.613 300.032 414.122C216.64 375.582 103.134 446.006 79.374 357.227C53.3192 259.872 -33.6371 258.907 14.0317 170.122C162.032 60.6224 94.0218 -15.3008 202.532 2.62232Z" fill="#DFDFDF"/>
<g clip-path="url(#clip0_57_420)">
<path d="M256.559 149.996H201.478C199.588 149.996 198.051 148.454 198.051 146.559C198.051 144.664 199.588 143.122 201.478 143.122H256.559C258.448 143.122 259.986 144.664 259.986 146.559C259.986 148.454 258.448 149.996 256.559 149.996Z" fill="#293241"/>
<path d="M299.544 161.631H201.478C199.588 161.631 198.051 160.089 198.051 158.193C198.051 156.298 199.588 154.756 201.478 154.756H299.544C301.434 154.756 302.971 156.298 302.971 158.193C302.971 160.089 301.434 161.631 299.544 161.631Z" fill="#293241"/>
<path d="M299.544 173.16H201.478C199.588 173.16 198.051 171.618 198.051 169.723C198.051 167.828 199.588 166.286 201.478 166.286H299.544C301.434 166.286 302.971 167.828 302.971 169.723C302.971 171.618 301.434 173.16 299.544 173.16Z" fill="#293241"/>
<path d="M309.932 232.993V231.346C290.978 231.346 274.425 215.816 270.025 194.183L277.166 196.026C273.712 192.743 270.223 187.248 268.058 182.757C266.779 187.578 264.391 193.637 261.62 197.517L268.377 194.306C272.87 216.812 290.134 232.993 309.932 232.993Z" fill="#3F3D56"/>
<path d="M302.762 169.96C302.762 171.776 301.289 173.254 299.478 173.254H256.783C254.972 173.254 253.498 171.776 253.498 169.96C253.498 168.143 254.972 166.666 256.783 166.666H299.478C301.289 166.666 302.762 168.143 302.762 169.96Z" fill="#EE6C4D"/>
<path d="M110.511 353.461C109.861 351.19 108.748 349.254 107.423 347.873L102.609 325.86L92.1144 328.438L98.128 350.491C97.7326 352.357 97.8117 354.584 98.4617 356.854C99.9465 362.04 103.847 365.485 107.175 364.547C110.502 363.61 111.996 358.647 110.511 353.461Z" fill="#FFB6B6"/>
<path d="M109.059 209.059C109.059 209.059 97.7246 208.666 91.1561 216.078C83.6305 225.299 78.4865 261.429 82.3482 263.862L92.8107 338.381L107.73 336.324L103.901 246.913L109.059 209.059Z" fill="#EE6C4D"/>
<path d="M185.578 334.669L182.863 425.62H143.862L142.286 390.561L135.356 425.62H93.5557L98.7694 365.352L104.156 352.678L107.801 344.088L185.578 334.669Z" fill="#293241"/>
<path d="M154.602 194.203L127.507 192.556L118.475 204.085C110.675 205.761 103.629 207.923 98.7695 211.497C99.9321 246.025 97.378 290.922 107.801 299.617L98.5457 365.141C98.5457 365.141 102.278 361.933 108.513 363.065C110.667 363.457 113.267 368.324 115.914 368.619C136.252 370.885 169.232 368.554 185.578 334.669L179.234 285.617L180.876 213.968C175.742 209.898 169.36 207.253 161.991 205.732L154.602 194.203Z" fill="#EE6C4D"/>
<path d="M206.764 174.159C207.058 177.014 206.685 179.699 205.825 181.852L210.339 208.874L197.456 210.652L194.265 183.049C192.985 181.118 192.072 178.566 191.778 175.711C191.107 169.188 193.917 163.553 198.055 163.124C202.194 162.696 206.093 167.636 206.764 174.159Z" fill="#FFB6B6"/>
<path d="M163.935 216.032C162.586 218.028 162.962 220.272 162.64 222.968C161.273 234.412 183.137 268.23 198.266 272.124C200.251 272.635 201.382 274.783 203.386 275.215C209.322 276.494 214.849 271.769 214.528 265.687L210.419 187.691L193.154 193.597L194.259 234.092C194.149 225.702 186.469 217.161 180.652 213.608C180.652 213.608 168.869 208.731 163.935 216.032Z" fill="#EE6C4D"/>
<path d="M143.866 190.424C157.047 190.424 167.732 179.707 167.732 166.486C167.732 153.265 157.047 142.547 143.866 142.547C130.685 142.547 120 153.265 120 166.486C120 179.707 130.685 190.424 143.866 190.424Z" fill="#FFB6B6"/>
<path d="M166.097 148.908C165.891 148.957 169.238 145.685 169.381 145.613C172.665 143.966 169.291 160.067 166.918 159.614C161.08 158.502 158.559 156.295 156.293 161.804C155.661 163.336 155.267 165.066 154.035 166.161C152.344 167.652 149.536 167.528 148.156 169.307C147.048 170.74 147.368 172.848 148.189 174.462C149.01 176.085 150.258 177.46 151.006 179.115C151.843 180.977 148.271 186.898 146.908 190.225V190.233L146.9 190.253C146.538 191.125 145.678 188.611 144.769 188.361C143.682 188.06 142.08 190.635 140.348 190.167C140.34 190.167 140.332 190.159 140.323 190.159C138.673 189.698 136.834 189.204 135.011 188.71H135.003C129.871 187.31 128.574 189.319 128.328 189.262L125.142 185.918C124.049 185.119 124.172 182.542 123.401 181.85C122.771 181.283 121.199 182.592 120.736 182.047C118.465 179.379 117.942 176.71 116.603 171.44C115.38 166.622 112.842 152.202 118.056 151.551C122.974 150.934 119.378 144.065 124.329 144.321C124.034 143.069 124.584 141.726 125.479 140.804C126.365 139.873 127.548 139.297 128.738 138.803C134.609 136.398 133.632 134.331 139.823 135.731C140.438 134.866 148.335 132.612 149.452 132.9C149.534 132.917 147.729 136.431 152.139 135.731C151.974 136.744 154.378 134.547 154.602 138.202C159.304 135.371 161.835 142.146 161.991 143.143C162.197 144.386 160.325 143.752 161.573 143.942C162.312 144.057 163.576 145.564 163.453 146.313C163.987 145.589 164.52 144.872 165.062 144.148C165.161 144.156 165.251 144.172 165.35 144.189C167.846 144.666 164.984 152.851 165.087 150.299C165.276 145.613 168.585 148.356 166.097 148.908Z" fill="#293241"/>
<path d="M470.52 144C469.638 151.269 468.675 158.529 467.63 165.777C467.205 168.721 466.757 171.702 465.576 174.431C464.77 176.293 463.641 177.994 462.518 179.683C461.192 181.679 459.843 183.701 458.041 185.279C456.239 186.857 453.899 187.965 451.514 187.78C457.842 183.508 462.094 176.282 462.766 168.661C463.082 165.079 462.649 161.478 462.566 157.883C462.482 154.287 462.782 150.567 464.436 147.376C466.09 144.185 469.357 141.631 472.941 141.722L470.52 144Z" fill="#293241"/>
<path d="M406.393 299.051C401.245 303.24 394.917 303.971 392.259 300.685C389.602 297.399 391.622 291.339 396.77 287.151C399.024 285.318 401.503 284.147 403.802 283.685L425.84 266.212L433.795 276.76L411.225 292.865C410.301 295.026 408.647 297.218 406.393 299.051Z" fill="#A0616A"/>
<path d="M410.556 275.331L443.393 244.079L446.677 241.608C446.677 241.608 465.526 223.189 470.407 222.767C472.475 222.588 474.542 223.105 476.284 224.24C479.097 226.07 480.555 229.082 480.555 232.119C480.555 234.656 479.536 237.205 477.451 239.082L447.388 266.151L434.599 277.666L418.695 291.991L417.078 288.687L411.61 277.494L410.556 275.331Z" fill="#EE6C4D"/>
<path d="M480.769 254.181L447.891 264.281C453.396 265.837 455.7 299.479 450.578 300.524C450.578 300.524 505.067 304.412 502.094 300.524C498.47 295.786 503.331 264.295 505.648 264.281L480.769 254.181Z" fill="#A0616A"/>
<path d="M524.518 425.622L521.645 390.836C521.645 378.392 520.84 367.15 519.551 357.128C514.386 316.898 501.438 296.276 501.438 296.276H452.995C452.93 296.35 452.864 296.408 452.798 296.482L452.79 296.49C441.361 308.539 435.416 338.837 432.773 357.128C431.516 365.833 431.007 371.82 431.007 371.82L426.27 414.051L429.694 425.622H457.881L457.437 423.143L475.575 357.128L475.796 356.321L475.993 357.128L492.809 425.622L524.518 425.622Z" fill="#293241"/>
<path d="M453.988 234.114L464.225 213.387L472.85 198.329L479.825 191.2H498.914L500.691 198.329L511.353 204.271L515.125 233.978L501.688 298.433C485.695 285.362 452.73 281.742 452.73 281.742L447.389 266.151L443.858 247.37L443.432 245.124L453.988 234.114Z" fill="#EE6C4D"/>
<path d="M452.76 271.607C446.134 271.418 440.859 267.836 440.979 263.607C441.098 259.377 446.567 256.101 453.193 256.29C456.094 256.373 458.736 257.105 460.779 258.258L488.847 259.41L488.027 272.61L460.445 270.073C458.339 271.108 455.661 271.689 452.76 271.607Z" fill="#A0616A"/>
<path d="M488.655 226.552L515.131 252.918L469.013 257.654L458.296 272.775L522.576 274.913C528.375 276.984 534.553 272.964 535.03 266.808C535.191 264.729 521.986 211.982 513.991 207.086C504.621 201.346 488.655 226.552 488.655 226.552Z" fill="#EE6C4D"/>
<path d="M507.046 165.33C507.238 153.354 497.716 143.489 485.776 143.296C473.837 143.103 464.002 152.655 463.809 164.63C463.617 176.606 473.14 186.47 485.079 186.663C497.018 186.857 506.853 177.305 507.046 165.33Z" fill="#A0616A"/>
<path d="M532.889 232.549C532.347 234.608 528.126 235.671 527.141 238.314C524.005 240.11 525.704 225.442 524.44 224.479C523.463 223.746 523.2 225.516 522.978 223.993C522.141 218.277 516.664 219.554 512.608 218.631C512.148 217.734 511.795 216.861 511.566 216.013C511.155 214.481 509.283 213.945 508.175 215.074C507.674 214.629 507.312 213.056 506.959 211.483C506.705 210.338 506.45 209.194 506.155 208.469L503.33 202.078L504.242 206.838C502.394 206.171 500.53 206.863 499.455 204.573C498.075 201.633 497.525 198.191 498.527 195.103C499.438 192.303 500.974 186.694 502.706 182.049C500.744 183.474 498.387 184.512 495.653 185.031C496.622 183.186 497.607 181.308 498.018 179.258C498.42 177.207 498.174 174.926 496.877 173.295C495.809 171.953 494.233 172.29 492.903 171.212C491.868 170.372 490.973 168.222 490.349 167.044C493.009 175.914 495.021 185.335 491.638 193.801C489.298 199.665 484.372 204.433 478.46 206.599C481.605 204.343 484.676 201.938 487.032 198.875C489.553 195.589 491.195 191.438 490.694 187.32C489.906 180.855 477.951 160.407 476.481 156.388C477.286 160.316 476.974 163.38 474.856 165.068C474.306 159.369 468.115 159.888 464.74 157.607C464.74 157.607 462.129 142.807 468.254 142.717C471.21 142.676 474.306 135.708 476.99 134.465C481.276 132.48 483.904 133.831 488.658 133.979C493.404 134.119 497.96 136.17 500.859 139.933C502.378 141.901 502.936 140.337 505.219 141.564C507.386 142.725 508.848 141.646 511.303 141.72C516.221 141.852 520.991 144.487 523.75 148.564C526.509 152.649 528.209 152.27 527.116 158.587C527.1 158.661 527.1 158.809 527.116 159.031C527.716 168.98 526.181 178.953 522.248 188.111C521.032 190.927 526.976 193.834 526.968 197.351C526.96 201.436 520.4 205.158 521.008 206.904C522.748 215.313 532.527 213.443 530.22 227.518C530.031 228.662 533.25 231.174 532.889 232.549Z" fill="#293241"/>
<path d="M472.99 206.798C473.171 206.74 473.351 206.674 473.532 206.6C473.302 206.765 473.08 206.921 472.851 207.086L472.99 206.798Z" fill="#293241"/>
<path d="M503.445 137.413C501.093 137.764 498.704 133.85 500.039 128.422C502.949 132.886 504.437 137.91 504.671 143.429L503.102 143.917L503.445 137.413Z" fill="#EE6C4D"/>
<path d="M515.462 132.347C513.857 138.052 505.706 141.869 504.266 139.884L504.101 143.286L503.094 141.986C506.017 137.625 510.002 134.281 515.462 132.347Z" fill="#EE6C4D"/>
<path d="M336.482 286.174C336.482 284.278 338.019 282.736 339.909 282.736H394.99C396.88 282.736 398.417 284.278 398.417 286.174C398.417 288.069 396.88 289.611 394.99 289.611H339.909C338.019 289.611 336.482 288.069 336.482 286.174Z" fill="#293241"/>
<path d="M336.482 309.233C336.482 307.338 338.019 305.796 339.909 305.796H394.99C396.88 305.796 398.417 307.338 398.417 309.233C398.417 311.128 396.88 312.67 394.99 312.67H339.909C338.019 312.67 336.482 311.128 336.482 309.233Z" fill="#293241"/>
<path d="M296.924 301.246C295.034 301.246 293.496 299.703 293.496 297.808C293.496 295.913 295.034 294.371 296.924 294.371H394.99C396.88 294.371 398.417 295.913 398.417 297.808C398.417 299.703 396.88 301.246 394.99 301.246H296.924Z" fill="#293241"/>
<path d="M289.633 268.347L282.876 265.136C285.647 269.015 288.035 275.075 289.314 279.896C291.479 275.405 294.968 269.91 298.423 266.627L291.281 268.47C295.682 246.837 312.234 231.307 331.188 231.307V229.66C311.39 229.66 294.126 245.84 289.633 268.347Z" fill="#3F3D56"/>
<path d="M320.734 301.308H278.039C276.228 301.308 274.755 299.83 274.755 298.014C274.755 296.198 276.228 294.72 278.039 294.72H320.734C322.545 294.72 324.018 296.198 324.018 298.014C324.018 299.83 322.545 301.308 320.734 301.308Z" fill="#EE6C4D"/>
<path d="M333.204 233.937C334.341 226.908 329.582 220.285 322.574 219.144C315.565 218.003 308.962 222.777 307.825 229.806C306.687 236.836 311.447 243.459 318.455 244.6C325.463 245.741 332.067 240.967 333.204 233.937Z" fill="#3F3D56"/>
<path d="M250.724 138.529C255.103 138.529 258.653 134.968 258.653 130.576C258.653 126.183 255.103 122.622 250.724 122.622C246.345 122.622 242.795 126.183 242.795 130.576C242.795 134.968 246.345 138.529 250.724 138.529Z" fill="#293241"/>
<path d="M343.504 276.061C347.883 276.061 351.433 272.501 351.433 268.108C351.433 263.716 347.883 260.155 343.504 260.155C339.125 260.155 335.575 263.716 335.575 268.108C335.575 272.501 339.125 276.061 343.504 276.061Z" fill="#293241"/>
</g>
<defs>
<clipPath id="clip0_57_420">
<rect width="454" height="303" fill="white" transform="translate(81.0317 122.622)"/>
</clipPath>
</defs>
</svg>
