<svg width="22" height="23" viewBox="0 0 22 23" fill="none" xmlns="http://www.w3.org/2000/svg">
<path d="M7 12.5C7 11.085 7 10.378 7.44 9.94C7.879 9.5 8.586 9.5 10 9.5H12C13.415 9.5 14.122 9.5 14.56 9.94C15 10.379 15 11.086 15 12.5V21.5V18.5C15 17.085 15 16.378 15.44 15.94C15.879 15.5 16.586 15.5 18 15.5C19.415 15.5 20.122 15.5 20.56 15.94C21 16.379 21 17.086 21 18.5V21.5M7 16.5V21.5C7 20.086 7 19.379 6.56 18.94C6.122 18.5 5.415 18.5 4 18.5C2.586 18.5 1.879 18.5 1.44 18.94C1 19.378 1 20.085 1 21.5" stroke="white" stroke-width="1.5" stroke-linecap="round"/>
<path d="M10.1458 2.523C10.5258 1.84 10.7158 1.5 10.9998 1.5C11.2838 1.5 11.4738 1.84 11.8538 2.523L11.9518 2.699C12.0598 2.893 12.1138 2.989 12.1978 3.053C12.2828 3.117 12.3878 3.141 12.5978 3.188L12.7878 3.232C13.5258 3.399 13.8948 3.482 13.9828 3.764C14.0708 4.047 13.8188 4.341 13.3158 4.929L13.1858 5.081C13.0428 5.248 12.9708 5.331 12.9388 5.435C12.9068 5.539 12.9178 5.65 12.9388 5.873L12.9588 6.076C13.0348 6.861 13.0728 7.254 12.8438 7.428C12.6138 7.603 12.2678 7.443 11.5768 7.125L11.3988 7.043C11.2018 6.953 11.1038 6.907 10.9998 6.907C10.8958 6.907 10.7978 6.953 10.6008 7.043L10.4228 7.125C9.73179 7.443 9.38579 7.603 9.15579 7.428C8.92579 7.254 8.96479 6.861 9.04079 6.076L9.06079 5.873C9.08179 5.65 9.09279 5.539 9.06079 5.435C9.02879 5.332 8.95679 5.248 8.81379 5.081L8.68379 4.929C8.18079 4.341 7.92879 4.047 8.01679 3.764C8.10479 3.482 8.47379 3.399 9.21179 3.232L9.40179 3.188C9.61179 3.141 9.71679 3.118 9.80179 3.053C9.88579 2.989 9.93979 2.893 10.0478 2.699L10.1458 2.523Z" stroke="white" stroke-width="1.5"/>
</svg>
