<svg width="20" height="17" viewBox="0 0 20 17" fill="none" xmlns="http://www.w3.org/2000/svg">
<path d="M5.51543 6.08508C5.13047 6.08508 4.76129 6.238 4.48909 6.51021C4.21689 6.78241 4.06396 7.15159 4.06396 7.53654C4.06396 7.9215 4.21689 8.29068 4.48909 8.56288C4.76129 8.83508 5.13047 8.98801 5.51543 8.98801C5.90038 8.98801 6.26956 8.83508 6.54176 8.56288C6.81397 8.29068 6.96689 7.9215 6.96689 7.53654C6.96689 7.15159 6.81397 6.78241 6.54176 6.51021C6.26956 6.238 5.90038 6.08508 5.51543 6.08508ZM10.1601 6.08508C9.77515 6.08508 9.40597 6.238 9.13376 6.51021C8.86156 6.78241 8.70864 7.15159 8.70864 7.53654C8.70864 7.9215 8.86156 8.29068 9.13376 8.56288C9.40597 8.83508 9.77515 8.98801 10.1601 8.98801C10.5451 8.98801 10.9142 8.83508 11.1864 8.56288C11.4586 8.29068 11.6116 7.9215 11.6116 7.53654C11.6116 7.15159 11.4586 6.78241 11.1864 6.51021C10.9142 6.238 10.5451 6.08508 10.1601 6.08508ZM13.3533 7.53654C13.3533 7.15159 13.5062 6.78241 13.7784 6.51021C14.0506 6.238 14.4198 6.08508 14.8048 6.08508C15.1897 6.08508 15.5589 6.238 15.8311 6.51021C16.1033 6.78241 16.2562 7.15159 16.2562 7.53654C16.2562 7.9215 16.1033 8.29068 15.8311 8.56288C15.5589 8.83508 15.1897 8.98801 14.8048 8.98801C14.4198 8.98801 14.0506 8.83508 13.7784 8.56288C13.5062 8.29068 13.3533 7.9215 13.3533 7.53654Z" fill="white"/>
<path fill-rule="evenodd" clip-rule="evenodd" d="M14.921 0.387244C11.7929 0.120454 8.64846 0.104922 5.51787 0.340797L5.29377 0.358215C3.85439 0.466841 2.50918 1.11523 1.52754 2.17352C0.545901 3.23182 0.000298841 4.62189 0 6.06536V15.955C0.000132966 16.1056 0.039293 16.2535 0.113659 16.3844C0.188024 16.5153 0.295055 16.6247 0.424308 16.7019C0.55356 16.7791 0.700618 16.8215 0.851131 16.8249C1.00164 16.8283 1.15047 16.7927 1.28309 16.7214L5.82326 14.2818C6.03493 14.168 6.27153 14.1086 6.51184 14.1088H16.9345C18.2489 14.1088 19.3753 13.1682 19.611 11.8759C20.0894 9.25509 20.1265 6.57279 19.7225 3.93926L19.604 3.16244C19.4987 2.47597 19.1655 1.84486 18.6582 1.37058C18.1509 0.8963 17.4988 0.606399 16.8068 0.547486L14.921 0.387244ZM5.65025 2.07791C8.68803 1.84871 11.7393 1.86346 14.7747 2.12203L16.6605 2.28343C17.2828 2.33685 17.7891 2.80944 17.8832 3.42718L18.0028 4.20285C18.3768 6.64518 18.3415 9.13276 17.8983 11.5635C17.8572 11.7889 17.7384 11.9928 17.5625 12.1396C17.3866 12.2865 17.1648 12.3669 16.9356 12.367H6.51184C5.98416 12.3671 5.46473 12.498 4.99999 12.7479L1.74175 14.4989V6.0642C1.74181 5.06 2.12121 4.09288 2.80398 3.3565C3.48675 2.62012 4.42248 2.16883 5.42382 2.093L5.64909 2.07675L5.65025 2.07791Z" fill="white"/>
</svg>
