<svg width="47" height="47" viewBox="0 0 47 47" fill="none" xmlns="http://www.w3.org/2000/svg">
<path fill-rule="evenodd" clip-rule="evenodd" d="M23.5 4.7C20.2118 4.69939 16.9809 5.56124 14.1299 7.19952C11.2789 8.8378 8.90738 11.1952 7.25216 14.0364C5.59693 16.8777 4.71586 20.1033 4.69689 23.3915C4.67791 26.6796 5.5217 29.9153 7.14402 32.7754C8.24055 31.3503 9.65013 30.1965 11.2638 29.4031C12.8774 28.6098 14.6519 28.1981 16.45 28.2H30.55C32.3481 28.1981 34.1226 28.6098 35.7362 29.4031C37.3499 30.1965 38.7594 31.3503 39.856 32.7754C41.4783 29.9153 42.3221 26.6796 42.3031 23.3915C42.2841 20.1033 41.4031 16.8777 39.7478 14.0364C38.0926 11.1952 35.7211 8.8378 32.8701 7.19952C30.0191 5.56124 26.7882 4.69939 23.5 4.7ZM42.166 37.7786C45.308 33.6824 47.0076 28.6624 47 23.5C47 10.5209 36.479 0 23.5 0C10.521 0 2.64451e-05 10.5209 2.64451e-05 23.5C-0.00773192 28.6624 1.6918 33.6825 4.83397 37.7786L4.82222 37.8209L5.65647 38.7914C7.8605 41.3682 10.5971 43.4365 13.6776 44.8536C16.758 46.2707 20.1092 47.003 23.5 47C28.2642 47.0087 32.9174 45.5615 36.8362 42.8522C38.5069 41.6979 40.0218 40.3331 41.3435 38.7914L42.1778 37.8209L42.166 37.7786ZM23.5 9.39999C21.6302 9.39999 19.837 10.1428 18.5149 11.4649C17.1928 12.787 16.45 14.5802 16.45 16.45C16.45 18.3198 17.1928 20.113 18.5149 21.4351C19.837 22.7572 21.6302 23.5 23.5 23.5C25.3698 23.5 27.163 22.7572 28.4851 21.4351C29.8072 20.113 30.55 18.3198 30.55 16.45C30.55 14.5802 29.8072 12.787 28.4851 11.4649C27.163 10.1428 25.3698 9.39999 23.5 9.39999Z" fill="#D8D8D8"/>
</svg>
