<svg width="22" height="29" viewBox="0 0 22 29" fill="none" xmlns="http://www.w3.org/2000/svg">
<path d="M5 7.5H9M5 14.5H17M5 18.5H17M5 22.5H9M3 27.5H19C19.5304 27.5 20.0391 27.2893 20.4142 26.9142C20.7893 26.5391 21 26.0304 21 25.5V3.5C21 2.96957 20.7893 2.46086 20.4142 2.08579C20.0391 1.71071 19.5304 1.5 19 1.5H3C2.46957 1.5 1.96086 1.71071 1.58579 2.08579C1.21071 2.46086 1 2.96957 1 3.5V25.5C1 26.0304 1.21071 26.5391 1.58579 26.9142C1.96086 27.2893 2.46957 27.5 3 27.5Z" stroke="white" stroke-width="2" stroke-linecap="round" stroke-linejoin="round"/>
<path d="M17 8C17.2761 8 17.5 7.77614 17.5 7.5C17.5 7.22386 17.2761 7 17 7C16.7239 7 16.5 7.22386 16.5 7.5C16.5 7.77614 16.7239 8 17 8Z" stroke="white"/>
</svg>
