<svg width="20" height="20" viewBox="0 0 20 20" fill="none" xmlns="http://www.w3.org/2000/svg">
<path d="M7.15307 3.40801C8.42004 1.136 9.05302 0 10 0C10.947 0 11.58 1.136 12.8469 3.40801L13.1749 3.99601C13.5349 4.64201 13.7149 4.96502 13.9949 5.17802C14.2749 5.39102 14.6249 5.47002 15.3249 5.62802L15.9609 5.77202C18.4208 6.32902 19.6498 6.60702 19.9428 7.54802C20.2348 8.48803 19.3968 9.46903 17.7198 11.43L17.2858 11.937C16.8098 12.494 16.5708 12.773 16.4638 13.117C16.3569 13.462 16.3928 13.834 16.4648 14.577L16.5308 15.254C16.7838 17.8711 16.9108 19.1791 16.1449 19.7601C15.3789 20.3421 14.2269 19.8111 11.925 18.7511L11.328 18.4771C10.674 18.1751 10.347 18.0251 10 18.0251C9.65301 18.0251 9.32601 18.1751 8.67103 18.4771L8.07605 18.7511C5.7731 19.8111 4.62113 20.3411 3.85614 19.7611C3.08916 19.1791 3.21616 17.8711 3.46915 15.254L3.53515 14.578C3.60715 13.834 3.64315 13.462 3.53515 13.118C3.42915 12.773 3.19016 12.494 2.71417 11.938L2.28018 11.43C0.603221 9.47003 -0.234759 8.48903 0.0572336 7.54802C0.350227 6.60702 1.5802 6.32802 4.04014 5.77202L4.67613 5.62802C5.37511 5.47002 5.7241 5.39102 6.00509 5.17802C6.28509 4.96502 6.46508 4.64201 6.82507 3.99601L7.15307 3.40801Z" fill="#D8D8D8"/>
</svg>
