<svg width="20" height="17" viewBox="0 0 20 17" fill="none" xmlns="http://www.w3.org/2000/svg">
<path d="M6 8.5C7.93437 8.5 9.5 6.59888 9.5 4.25C9.5 1.90112 7.93437 0 6 0C4.06563 0 2.5 1.90112 2.5 4.25C2.5 6.59888 4.06563 8.5 6 8.5ZM8.4 9.71429H8.14062C7.49062 10.0938 6.76875 10.3214 6 10.3214C5.23125 10.3214 4.5125 10.0938 3.85938 9.71429H3.6C1.6125 9.71429 0 11.6723 0 14.0857V15.1786C0 16.1842 0.671875 17 1.5 17H10.5C11.3281 17 12 16.1842 12 15.1786V14.0857C12 11.6723 10.3875 9.71429 8.4 9.71429ZM15 8.5C16.6562 8.5 18 6.8683 18 4.85714C18 2.84598 16.6562 1.21429 15 1.21429C13.3438 1.21429 12 2.84598 12 4.85714C12 6.8683 13.3438 8.5 15 8.5ZM16.5 9.71429H16.3813C15.9469 9.89643 15.4875 10.0179 15 10.0179C14.5125 10.0179 14.0531 9.89643 13.6187 9.71429H13.5C12.8625 9.71429 12.275 9.93817 11.7594 10.2987C12.5219 11.2967 13 12.621 13 14.0857V15.5429C13 15.6263 12.9844 15.706 12.9812 15.7857H18.5C19.3281 15.7857 20 14.9699 20 13.9643C20 11.6154 18.4344 9.71429 16.5 9.71429Z" fill="white"/>
</svg>
